<?xml version="1.0" encoding="UTF-8" standalone="no"?>
<!DOCTYPE svg PUBLIC "-//W3C//DTD SVG 1.1//EN"
 "http://www.w3.org/Graphics/SVG/1.1/DTD/svg11.dtd">
<!-- Generated by graphviz version 2.43.0 (0)
 -->
<!-- Title: G Pages: 1 -->
<svg width="427pt" height="417pt"
 viewBox="0.00 0.00 426.50 417.18" xmlns="http://www.w3.org/2000/svg" xmlns:xlink="http://www.w3.org/1999/xlink">
<g id="graph0" class="graph" transform="scale(1 1) rotate(0) translate(4 413.18)">
<title>G</title>
<polygon fill="white" stroke="transparent" points="-4,4 -4,-413.18 422.5,-413.18 422.5,4 -4,4"/>
<!-- eta2 -->
<g id="node1" class="node">
<title>eta2</title>
<ellipse fill="#cae6df" stroke="black" cx="117" cy="-129.2" rx="31.4" ry="31.4"/>
<text text-anchor="middle" x="117" y="-125.5" font-family="Times,serif" font-size="14.00">eta2</text>
</g>
<!-- BIS11 -->
<g id="node4" class="node">
<title>BIS11</title>
<polygon fill="none" stroke="black" points="60,-36 0,-36 0,0 60,0 60,-36"/>
<text text-anchor="middle" x="30" y="-14.3" font-family="Times,serif" font-size="14.00">BIS11</text>
</g>
<!-- eta2&#45;&gt;BIS11 -->
<g id="edge6" class="edge">
<title>eta2&#45;&gt;BIS11</title>
<path fill="none" stroke="black" d="M89.48,-114.35C75.56,-106.09 59.46,-94.4 49,-80 41.76,-70.04 37.23,-57.24 34.42,-45.95"/>
<polygon fill="black" stroke="black" points="37.83,-45.15 32.29,-36.12 30.99,-46.63 37.83,-45.15"/>
<text text-anchor="middle" x="81" y="-70.4" font-family="Times,serif" font-size="12.00">0.989</text>
<text text-anchor="middle" x="81" y="-57.4" font-family="Times,serif" font-size="12.00">p&#45;val: 0.00</text>
</g>
<!-- UPPS -->
<g id="node5" class="node">
<title>UPPS</title>
<polygon fill="none" stroke="black" points="146,-36 88,-36 88,0 146,0 146,-36"/>
<text text-anchor="middle" x="117" y="-14.3" font-family="Times,serif" font-size="14.00">UPPS</text>
</g>
<!-- eta2&#45;&gt;UPPS -->
<g id="edge4" class="edge">
<title>eta2&#45;&gt;UPPS</title>
<path fill="none" stroke="black" d="M117,-97.78C117,-81.58 117,-61.81 117,-46.14"/>
<polygon fill="black" stroke="black" points="120.5,-46.03 117,-36.03 113.5,-46.03 120.5,-46.03"/>
<text text-anchor="middle" x="134" y="-63.9" font-family="Times,serif" font-size="12.00">1.000</text>
</g>
<!-- dickman -->
<g id="node7" class="node">
<title>dickman</title>
<polygon fill="none" stroke="black" points="241.5,-36 164.5,-36 164.5,0 241.5,0 241.5,-36"/>
<text text-anchor="middle" x="203" y="-14.3" font-family="Times,serif" font-size="14.00">dickman</text>
</g>
<!-- eta2&#45;&gt;dickman -->
<g id="edge5" class="edge">
<title>eta2&#45;&gt;dickman</title>
<path fill="none" stroke="black" d="M135.95,-104.18C142.03,-96.46 148.8,-87.87 155,-80 164.3,-68.19 174.61,-55.09 183.29,-44.06"/>
<polygon fill="black" stroke="black" points="186.12,-46.12 189.56,-36.09 180.62,-41.79 186.12,-46.12"/>
<text text-anchor="middle" x="207" y="-70.4" font-family="Times,serif" font-size="12.00">0.956</text>
<text text-anchor="middle" x="207" y="-57.4" font-family="Times,serif" font-size="12.00">p&#45;val: 0.00</text>
</g>
<!-- eta1 -->
<g id="node2" class="node">
<title>eta1</title>
<ellipse fill="#cae6df" stroke="black" cx="218" cy="-253.59" rx="31.4" ry="31.4"/>
<text text-anchor="middle" x="218" y="-249.89" font-family="Times,serif" font-size="14.00">eta1</text>
</g>
<!-- eta1&#45;&gt;eta2 -->
<g id="edge9" class="edge">
<title>eta1&#45;&gt;eta2</title>
<path fill="none" stroke="black" stroke-dasharray="5,2" d="M182.49,-232.01C166.8,-222.36 150.64,-211.45 145,-204.39 136.94,-194.31 131.03,-181.66 126.78,-169.68"/>
<polygon fill="black" stroke="black" points="180.72,-235.03 191.09,-237.22 184.34,-229.04 180.72,-235.03"/>
<polygon fill="black" stroke="black" points="130,-168.27 123.58,-159.84 123.34,-170.43 130,-168.27"/>
<text text-anchor="middle" x="177" y="-194.79" font-family="Times,serif" font-size="12.00">0.140</text>
<text text-anchor="middle" x="177" y="-181.79" font-family="Times,serif" font-size="12.00">p&#45;val: 0.13</text>
</g>
<!-- dspan -->
<g id="node8" class="node">
<title>dspan</title>
<polygon fill="none" stroke="black" points="238.5,-147.2 179.5,-147.2 179.5,-111.2 238.5,-111.2 238.5,-147.2"/>
<text text-anchor="middle" x="209" y="-125.5" font-family="Times,serif" font-size="14.00">dspan</text>
</g>
<!-- eta1&#45;&gt;dspan -->
<g id="edge1" class="edge">
<title>eta1&#45;&gt;dspan</title>
<path fill="none" stroke="black" d="M215.78,-222.34C214.32,-202.48 212.42,-176.72 211.01,-157.49"/>
<polygon fill="black" stroke="black" points="214.48,-157.01 210.26,-147.29 207.5,-157.52 214.48,-157.01"/>
<text text-anchor="middle" x="232" y="-188.29" font-family="Times,serif" font-size="12.00">1.000</text>
</g>
<!-- nback -->
<g id="node9" class="node">
<title>nback</title>
<polygon fill="none" stroke="black" points="315.5,-147.2 256.5,-147.2 256.5,-111.2 315.5,-111.2 315.5,-147.2"/>
<text text-anchor="middle" x="286" y="-125.5" font-family="Times,serif" font-size="14.00">nback</text>
</g>
<!-- eta1&#45;&gt;nback -->
<g id="edge3" class="edge">
<title>eta1&#45;&gt;nback</title>
<path fill="none" stroke="black" d="M237.2,-228.25C242.64,-220.81 248.35,-212.46 253,-204.39 261.76,-189.21 269.79,-171.28 275.74,-156.85"/>
<polygon fill="black" stroke="black" points="279.02,-158.08 279.51,-147.49 272.53,-155.46 279.02,-158.08"/>
<text text-anchor="middle" x="299" y="-194.79" font-family="Times,serif" font-size="12.00">0.955</text>
<text text-anchor="middle" x="299" y="-181.79" font-family="Times,serif" font-size="12.00">p&#45;val: 0.00</text>
</g>
<!-- sspan -->
<g id="node11" class="node">
<title>sspan</title>
<polygon fill="none" stroke="black" points="397,-147.2 339,-147.2 339,-111.2 397,-111.2 397,-147.2"/>
<text text-anchor="middle" x="368" y="-125.5" font-family="Times,serif" font-size="14.00">sspan</text>
</g>
<!-- eta1&#45;&gt;sspan -->
<g id="edge2" class="edge">
<title>eta1&#45;&gt;sspan</title>
<path fill="none" stroke="black" d="M242.33,-234.04C248.8,-229.75 255.95,-225.53 263,-222.39 293.14,-209 309.74,-225.61 335,-204.39 349.26,-192.42 357.59,-173.05 362.31,-157.11"/>
<polygon fill="black" stroke="black" points="365.75,-157.8 364.92,-147.24 358.98,-156.01 365.75,-157.8"/>
<text text-anchor="middle" x="385" y="-194.79" font-family="Times,serif" font-size="12.00">0.971</text>
<text text-anchor="middle" x="385" y="-181.79" font-family="Times,serif" font-size="12.00">p&#45;val: 0.00</text>
</g>
<!-- eta3 -->
<g id="node3" class="node">
<title>eta3</title>
<ellipse fill="#cae6df" stroke="black" cx="255" cy="-377.99" rx="31.4" ry="31.4"/>
<text text-anchor="middle" x="255" y="-374.29" font-family="Times,serif" font-size="14.00">eta3</text>
</g>
<!-- eta3&#45;&gt;eta2 -->
<g id="edge10" class="edge">
<title>eta3&#45;&gt;eta2</title>
<path fill="none" stroke="black" stroke-dasharray="5,2" d="M215.77,-363.56C181.99,-349.66 135.4,-324.36 114,-284.79 94.81,-249.32 99.18,-202.23 106.06,-169.39"/>
<polygon fill="black" stroke="black" points="214.78,-366.93 225.36,-367.34 217.35,-360.42 214.78,-366.93"/>
<polygon fill="black" stroke="black" points="109.56,-169.78 108.36,-159.26 102.73,-168.23 109.56,-169.78"/>
<text text-anchor="middle" x="146" y="-256.99" font-family="Times,serif" font-size="12.00">0.052</text>
<text text-anchor="middle" x="146" y="-243.99" font-family="Times,serif" font-size="12.00">p&#45;val: 0.55</text>
</g>
<!-- eta3&#45;&gt;eta1 -->
<g id="edge11" class="edge">
<title>eta3&#45;&gt;eta1</title>
<path fill="none" stroke="black" stroke-dasharray="5,2" d="M224.76,-348.82C219.94,-342.72 215.68,-335.93 213,-328.79 208.94,-317.96 208.34,-305.62 209.26,-294.16"/>
<polygon fill="black" stroke="black" points="222.37,-351.41 231.56,-356.68 227.66,-346.83 222.37,-351.41"/>
<polygon fill="black" stroke="black" points="212.77,-294.3 210.49,-283.95 205.82,-293.46 212.77,-294.3"/>
<text text-anchor="middle" x="245" y="-319.19" font-family="Times,serif" font-size="12.00">0.464</text>
<text text-anchor="middle" x="245" y="-306.19" font-family="Times,serif" font-size="12.00">p&#45;val: 0.00</text>
</g>
<!-- crt -->
<g id="node6" class="node">
<title>crt</title>
<polygon fill="none" stroke="black" points="326,-271.59 272,-271.59 272,-235.59 326,-235.59 326,-271.59"/>
<text text-anchor="middle" x="299" y="-249.89" font-family="Times,serif" font-size="14.00">crt</text>
</g>
<!-- eta3&#45;&gt;crt -->
<g id="edge8" class="edge">
<title>eta3&#45;&gt;crt</title>
<path fill="none" stroke="black" d="M268.35,-349.49C271.38,-342.79 274.45,-335.59 277,-328.79 282.8,-313.3 288.11,-295.55 292.06,-281.29"/>
<polygon fill="black" stroke="black" points="295.44,-282.18 294.68,-271.61 288.69,-280.35 295.44,-282.18"/>
<text text-anchor="middle" x="318" y="-319.19" font-family="Times,serif" font-size="12.00">1.064</text>
<text text-anchor="middle" x="318" y="-306.19" font-family="Times,serif" font-size="12.00">p&#45;val: 0.00</text>
</g>
<!-- ravens -->
<g id="node10" class="node">
<title>ravens</title>
<polygon fill="none" stroke="black" points="418.5,-271.59 353.5,-271.59 353.5,-235.59 418.5,-235.59 418.5,-271.59"/>
<text text-anchor="middle" x="386" y="-249.89" font-family="Times,serif" font-size="14.00">ravens</text>
</g>
<!-- eta3&#45;&gt;ravens -->
<g id="edge7" class="edge">
<title>eta3&#45;&gt;ravens</title>
<path fill="none" stroke="black" d="M284.8,-368.66C306.44,-361.28 335.12,-348.56 354,-328.79 366.44,-315.77 374.45,-297.15 379.34,-281.82"/>
<polygon fill="black" stroke="black" points="382.81,-282.42 382.25,-271.84 376.09,-280.46 382.81,-282.42"/>
<text text-anchor="middle" x="387" y="-312.69" font-family="Times,serif" font-size="12.00">1.000</text>
</g>
</g>
</svg>
