<?xml version="1.0" encoding="UTF-8" standalone="no"?>
<!DOCTYPE svg PUBLIC "-//W3C//DTD SVG 1.1//EN"
 "http://www.w3.org/Graphics/SVG/1.1/DTD/svg11.dtd">
<!-- Generated by graphviz version 2.43.0 (0)
 -->
<!-- Title: G Pages: 1 -->
<svg width="429pt" height="417pt"
 viewBox="0.00 0.00 429.00 417.18" xmlns="http://www.w3.org/2000/svg" xmlns:xlink="http://www.w3.org/1999/xlink">
<g id="graph0" class="graph" transform="scale(1 1) rotate(0) translate(4 413.18)">
<title>G</title>
<polygon fill="white" stroke="transparent" points="-4,4 -4,-413.18 425,-413.18 425,4 -4,4"/>
<!-- eta1 -->
<g id="node1" class="node">
<title>eta1</title>
<ellipse fill="#cae6df" stroke="black" cx="106.5" cy="-129.2" rx="31.4" ry="31.4"/>
<text text-anchor="middle" x="106.5" y="-125.5" font-family="Times,serif" font-size="14.00">eta1</text>
</g>
<!-- dspan -->
<g id="node8" class="node">
<title>dspan</title>
<polygon fill="none" stroke="black" points="59,-36 0,-36 0,0 59,0 59,-36"/>
<text text-anchor="middle" x="29.5" y="-14.3" font-family="Times,serif" font-size="14.00">dspan</text>
</g>
<!-- eta1&#45;&gt;dspan -->
<g id="edge1" class="edge">
<title>eta1&#45;&gt;dspan</title>
<path fill="none" stroke="black" d="M87.08,-104.53C80.97,-96.83 74.31,-88.16 68.5,-80 60.47,-68.72 52.13,-55.85 45.24,-44.85"/>
<polygon fill="black" stroke="black" points="48.07,-42.78 39.82,-36.13 42.12,-46.47 48.07,-42.78"/>
<text text-anchor="middle" x="85.5" y="-63.9" font-family="Times,serif" font-size="12.00">1.000</text>
</g>
<!-- nback -->
<g id="node9" class="node">
<title>nback</title>
<polygon fill="none" stroke="black" points="136,-36 77,-36 77,0 136,0 136,-36"/>
<text text-anchor="middle" x="106.5" y="-14.3" font-family="Times,serif" font-size="14.00">nback</text>
</g>
<!-- eta1&#45;&gt;nback -->
<g id="edge3" class="edge">
<title>eta1&#45;&gt;nback</title>
<path fill="none" stroke="black" d="M106.5,-97.78C106.5,-81.58 106.5,-61.81 106.5,-46.14"/>
<polygon fill="black" stroke="black" points="110,-46.03 106.5,-36.03 103,-46.03 110,-46.03"/>
<text text-anchor="middle" x="138.5" y="-70.4" font-family="Times,serif" font-size="12.00">0.955</text>
<text text-anchor="middle" x="138.5" y="-57.4" font-family="Times,serif" font-size="12.00">p&#45;val: 0.00</text>
</g>
<!-- sspan -->
<g id="node11" class="node">
<title>sspan</title>
<polygon fill="none" stroke="black" points="222.5,-36 164.5,-36 164.5,0 222.5,0 222.5,-36"/>
<text text-anchor="middle" x="193.5" y="-14.3" font-family="Times,serif" font-size="14.00">sspan</text>
</g>
<!-- eta1&#45;&gt;sspan -->
<g id="edge2" class="edge">
<title>eta1&#45;&gt;sspan</title>
<path fill="none" stroke="black" d="M133.53,-113.3C146.53,-104.96 161.44,-93.53 171.5,-80 178.96,-69.97 184.09,-57.17 187.5,-45.88"/>
<polygon fill="black" stroke="black" points="190.92,-46.64 190.17,-36.07 184.17,-44.8 190.92,-46.64"/>
<text text-anchor="middle" x="216.5" y="-70.4" font-family="Times,serif" font-size="12.00">0.971</text>
<text text-anchor="middle" x="216.5" y="-57.4" font-family="Times,serif" font-size="12.00">p&#45;val: 0.00</text>
</g>
<!-- eta2 -->
<g id="node2" class="node">
<title>eta2</title>
<ellipse fill="#cae6df" stroke="black" cx="209.5" cy="-253.59" rx="31.4" ry="31.4"/>
<text text-anchor="middle" x="209.5" y="-249.89" font-family="Times,serif" font-size="14.00">eta2</text>
</g>
<!-- eta2&#45;&gt;eta1 -->
<g id="edge9" class="edge">
<title>eta2&#45;&gt;eta1</title>
<path fill="none" stroke="black" stroke-dasharray="5,2" d="M173.9,-232.41C162.52,-224.72 150.54,-215.18 141.5,-204.39 132.69,-193.89 125.56,-180.79 120.09,-168.54"/>
<polygon fill="black" stroke="black" points="172.13,-235.44 182.43,-237.92 175.93,-229.56 172.13,-235.44"/>
<polygon fill="black" stroke="black" points="123.16,-166.81 116.06,-158.96 116.71,-169.53 123.16,-166.81"/>
<text text-anchor="middle" x="173.5" y="-194.79" font-family="Times,serif" font-size="12.00">0.140</text>
<text text-anchor="middle" x="173.5" y="-181.79" font-family="Times,serif" font-size="12.00">p&#45;val: 0.13</text>
</g>
<!-- BIS11 -->
<g id="node4" class="node">
<title>BIS11</title>
<polygon fill="none" stroke="black" points="239.5,-147.2 179.5,-147.2 179.5,-111.2 239.5,-111.2 239.5,-147.2"/>
<text text-anchor="middle" x="209.5" y="-125.5" font-family="Times,serif" font-size="14.00">BIS11</text>
</g>
<!-- eta2&#45;&gt;BIS11 -->
<g id="edge6" class="edge">
<title>eta2&#45;&gt;BIS11</title>
<path fill="none" stroke="black" d="M209.5,-222.34C209.5,-202.48 209.5,-176.72 209.5,-157.49"/>
<polygon fill="black" stroke="black" points="213,-157.29 209.5,-147.29 206,-157.29 213,-157.29"/>
<text text-anchor="middle" x="241.5" y="-194.79" font-family="Times,serif" font-size="12.00">0.989</text>
<text text-anchor="middle" x="241.5" y="-181.79" font-family="Times,serif" font-size="12.00">p&#45;val: 0.00</text>
</g>
<!-- UPPS -->
<g id="node5" class="node">
<title>UPPS</title>
<polygon fill="none" stroke="black" points="325.5,-147.2 267.5,-147.2 267.5,-111.2 325.5,-111.2 325.5,-147.2"/>
<text text-anchor="middle" x="296.5" y="-125.5" font-family="Times,serif" font-size="14.00">UPPS</text>
</g>
<!-- eta2&#45;&gt;UPPS -->
<g id="edge4" class="edge">
<title>eta2&#45;&gt;UPPS</title>
<path fill="none" stroke="black" d="M235.35,-235.91C251.02,-225.34 269.02,-212.22 274.5,-204.39 284.17,-190.58 289.65,-172.47 292.72,-157.6"/>
<polygon fill="black" stroke="black" points="296.22,-157.92 294.55,-147.46 289.33,-156.67 296.22,-157.92"/>
<text text-anchor="middle" x="304.5" y="-188.29" font-family="Times,serif" font-size="12.00">1.000</text>
</g>
<!-- dickman -->
<g id="node7" class="node">
<title>dickman</title>
<polygon fill="none" stroke="black" points="421,-147.2 344,-147.2 344,-111.2 421,-111.2 421,-147.2"/>
<text text-anchor="middle" x="382.5" y="-125.5" font-family="Times,serif" font-size="14.00">dickman</text>
</g>
<!-- eta2&#45;&gt;dickman -->
<g id="edge5" class="edge">
<title>eta2&#45;&gt;dickman</title>
<path fill="none" stroke="black" d="M233.84,-234.06C240.31,-229.77 247.45,-225.54 254.5,-222.39 284.23,-209.13 298.31,-222.29 325.5,-204.39 343.76,-192.38 358.58,-172.49 368.52,-156.33"/>
<polygon fill="black" stroke="black" points="371.76,-157.72 373.8,-147.33 365.72,-154.18 371.76,-157.72"/>
<text text-anchor="middle" x="383.5" y="-194.79" font-family="Times,serif" font-size="12.00">0.956</text>
<text text-anchor="middle" x="383.5" y="-181.79" font-family="Times,serif" font-size="12.00">p&#45;val: 0.00</text>
</g>
<!-- eta3 -->
<g id="node3" class="node">
<title>eta3</title>
<ellipse fill="#cae6df" stroke="black" cx="246.5" cy="-377.99" rx="31.4" ry="31.4"/>
<text text-anchor="middle" x="246.5" y="-374.29" font-family="Times,serif" font-size="14.00">eta3</text>
</g>
<!-- eta3&#45;&gt;eta1 -->
<g id="edge10" class="edge">
<title>eta3&#45;&gt;eta1</title>
<path fill="none" stroke="black" stroke-dasharray="5,2" d="M207.27,-363.56C173.49,-349.66 126.9,-324.36 105.5,-284.79 86.37,-249.43 89.97,-202.52 96.25,-169.69"/>
<polygon fill="black" stroke="black" points="206.28,-366.93 216.86,-367.34 208.85,-360.42 206.28,-366.93"/>
<polygon fill="black" stroke="black" points="99.75,-170.06 98.36,-159.55 92.89,-168.63 99.75,-170.06"/>
<text text-anchor="middle" x="137.5" y="-256.99" font-family="Times,serif" font-size="12.00">0.494</text>
<text text-anchor="middle" x="137.5" y="-243.99" font-family="Times,serif" font-size="12.00">p&#45;val: 0.00</text>
</g>
<!-- eta3&#45;&gt;eta2 -->
<g id="edge11" class="edge">
<title>eta3&#45;&gt;eta2</title>
<path fill="none" stroke="black" stroke-dasharray="5,2" d="M216.26,-348.82C211.44,-342.72 207.18,-335.93 204.5,-328.79 200.44,-317.96 199.84,-305.62 200.76,-294.16"/>
<polygon fill="black" stroke="black" points="213.87,-351.41 223.06,-356.68 219.16,-346.83 213.87,-351.41"/>
<polygon fill="black" stroke="black" points="204.27,-294.3 201.99,-283.95 197.32,-293.46 204.27,-294.3"/>
<text text-anchor="middle" x="236.5" y="-319.19" font-family="Times,serif" font-size="12.00">0.055</text>
<text text-anchor="middle" x="236.5" y="-306.19" font-family="Times,serif" font-size="12.00">p&#45;val: 0.55</text>
</g>
<!-- crt -->
<g id="node6" class="node">
<title>crt</title>
<polygon fill="none" stroke="black" points="317.5,-271.59 263.5,-271.59 263.5,-235.59 317.5,-235.59 317.5,-271.59"/>
<text text-anchor="middle" x="290.5" y="-249.89" font-family="Times,serif" font-size="14.00">crt</text>
</g>
<!-- eta3&#45;&gt;crt -->
<g id="edge7" class="edge">
<title>eta3&#45;&gt;crt</title>
<path fill="none" stroke="black" d="M259.85,-349.49C262.88,-342.79 265.95,-335.59 268.5,-328.79 274.3,-313.3 279.61,-295.55 283.56,-281.29"/>
<polygon fill="black" stroke="black" points="286.94,-282.18 286.18,-271.61 280.19,-280.35 286.94,-282.18"/>
<text text-anchor="middle" x="294.5" y="-312.69" font-family="Times,serif" font-size="12.00">1.000</text>
</g>
<!-- ravens -->
<g id="node10" class="node">
<title>ravens</title>
<polygon fill="none" stroke="black" points="401,-271.59 336,-271.59 336,-235.59 401,-235.59 401,-271.59"/>
<text text-anchor="middle" x="368.5" y="-249.89" font-family="Times,serif" font-size="14.00">ravens</text>
</g>
<!-- eta3&#45;&gt;ravens -->
<g id="edge8" class="edge">
<title>eta3&#45;&gt;ravens</title>
<path fill="none" stroke="black" d="M273.01,-361.5C286.56,-352.86 302.83,-341.33 315.5,-328.79 330.04,-314.4 343.4,-295.64 353.07,-280.58"/>
<polygon fill="black" stroke="black" points="356.25,-282.09 358.59,-271.76 350.32,-278.38 356.25,-282.09"/>
<text text-anchor="middle" x="368.5" y="-319.19" font-family="Times,serif" font-size="12.00">0.940</text>
<text text-anchor="middle" x="368.5" y="-306.19" font-family="Times,serif" font-size="12.00">p&#45;val: 0.00</text>
</g>
</g>
</svg>
