<?xml version="1.0" encoding="UTF-8" standalone="no"?>
<!DOCTYPE svg PUBLIC "-//W3C//DTD SVG 1.1//EN"
 "http://www.w3.org/Graphics/SVG/1.1/DTD/svg11.dtd">
<!-- Generated by graphviz version 2.43.0 (0)
 -->
<!-- Title: G Pages: 1 -->
<svg width="474pt" height="417pt"
 viewBox="0.00 0.00 473.50 417.18" xmlns="http://www.w3.org/2000/svg" xmlns:xlink="http://www.w3.org/1999/xlink">
<g id="graph0" class="graph" transform="scale(1 1) rotate(0) translate(4 413.18)">
<title>G</title>
<polygon fill="white" stroke="transparent" points="-4,4 -4,-413.18 469.5,-413.18 469.5,4 -4,4"/>
<!-- eta3 -->
<g id="node1" class="node">
<title>eta3</title>
<ellipse fill="#cae6df" stroke="black" cx="70" cy="-129.2" rx="31.4" ry="31.4"/>
<text text-anchor="middle" x="70" y="-125.5" font-family="Times,serif" font-size="14.00">eta3</text>
</g>
<!-- crt -->
<g id="node6" class="node">
<title>crt</title>
<polygon fill="none" stroke="black" points="54,-36 0,-36 0,0 54,0 54,-36"/>
<text text-anchor="middle" x="27" y="-14.3" font-family="Times,serif" font-size="14.00">crt</text>
</g>
<!-- eta3&#45;&gt;crt -->
<g id="edge8" class="edge">
<title>eta3&#45;&gt;crt</title>
<path fill="none" stroke="black" d="M46.65,-107.86C39.26,-99.98 31.98,-90.36 28,-80 23.96,-69.47 23.1,-57.14 23.49,-46.34"/>
<polygon fill="black" stroke="black" points="26.99,-46.39 24.21,-36.16 20.01,-45.89 26.99,-46.39"/>
<text text-anchor="middle" x="60" y="-70.4" font-family="Times,serif" font-size="12.00">1.064</text>
<text text-anchor="middle" x="60" y="-57.4" font-family="Times,serif" font-size="12.00">p&#45;val: 0.00</text>
</g>
<!-- ravens -->
<g id="node10" class="node">
<title>ravens</title>
<polygon fill="none" stroke="black" points="146.5,-36 81.5,-36 81.5,0 146.5,0 146.5,-36"/>
<text text-anchor="middle" x="114" y="-14.3" font-family="Times,serif" font-size="14.00">ravens</text>
</g>
<!-- eta3&#45;&gt;ravens -->
<g id="edge7" class="edge">
<title>eta3&#45;&gt;ravens</title>
<path fill="none" stroke="black" d="M83.07,-100.59C86.11,-93.89 89.26,-86.73 92,-80 96.51,-68.94 101.06,-56.57 104.84,-45.88"/>
<polygon fill="black" stroke="black" points="108.22,-46.83 108.21,-36.23 101.61,-44.52 108.22,-46.83"/>
<text text-anchor="middle" x="119" y="-63.9" font-family="Times,serif" font-size="12.00">1.000</text>
</g>
<!-- eta1 -->
<g id="node2" class="node">
<title>eta1</title>
<ellipse fill="#cae6df" stroke="black" cx="171" cy="-253.59" rx="31.4" ry="31.4"/>
<text text-anchor="middle" x="171" y="-249.89" font-family="Times,serif" font-size="14.00">eta1</text>
</g>
<!-- eta1&#45;&gt;eta3 -->
<g id="edge9" class="edge">
<title>eta1&#45;&gt;eta3</title>
<path fill="none" stroke="black" stroke-dasharray="5,2" d="M135.49,-232.01C119.8,-222.36 103.64,-211.45 98,-204.39 89.94,-194.31 84.03,-181.66 79.78,-169.68"/>
<polygon fill="black" stroke="black" points="133.72,-235.03 144.09,-237.22 137.34,-229.04 133.72,-235.03"/>
<polygon fill="black" stroke="black" points="83,-168.27 76.58,-159.84 76.34,-170.43 83,-168.27"/>
<text text-anchor="middle" x="130" y="-194.79" font-family="Times,serif" font-size="12.00">0.464</text>
<text text-anchor="middle" x="130" y="-181.79" font-family="Times,serif" font-size="12.00">p&#45;val: 0.00</text>
</g>
<!-- dspan -->
<g id="node8" class="node">
<title>dspan</title>
<polygon fill="none" stroke="black" points="191.5,-147.2 132.5,-147.2 132.5,-111.2 191.5,-111.2 191.5,-147.2"/>
<text text-anchor="middle" x="162" y="-125.5" font-family="Times,serif" font-size="14.00">dspan</text>
</g>
<!-- eta1&#45;&gt;dspan -->
<g id="edge1" class="edge">
<title>eta1&#45;&gt;dspan</title>
<path fill="none" stroke="black" d="M168.78,-222.34C167.32,-202.48 165.42,-176.72 164.01,-157.49"/>
<polygon fill="black" stroke="black" points="167.48,-157.01 163.26,-147.29 160.5,-157.52 167.48,-157.01"/>
<text text-anchor="middle" x="185" y="-188.29" font-family="Times,serif" font-size="12.00">1.000</text>
</g>
<!-- nback -->
<g id="node9" class="node">
<title>nback</title>
<polygon fill="none" stroke="black" points="268.5,-147.2 209.5,-147.2 209.5,-111.2 268.5,-111.2 268.5,-147.2"/>
<text text-anchor="middle" x="239" y="-125.5" font-family="Times,serif" font-size="14.00">nback</text>
</g>
<!-- eta1&#45;&gt;nback -->
<g id="edge3" class="edge">
<title>eta1&#45;&gt;nback</title>
<path fill="none" stroke="black" d="M190.2,-228.25C195.64,-220.81 201.35,-212.46 206,-204.39 214.76,-189.21 222.79,-171.28 228.74,-156.85"/>
<polygon fill="black" stroke="black" points="232.02,-158.08 232.51,-147.49 225.53,-155.46 232.02,-158.08"/>
<text text-anchor="middle" x="252" y="-194.79" font-family="Times,serif" font-size="12.00">0.955</text>
<text text-anchor="middle" x="252" y="-181.79" font-family="Times,serif" font-size="12.00">p&#45;val: 0.00</text>
</g>
<!-- sspan -->
<g id="node11" class="node">
<title>sspan</title>
<polygon fill="none" stroke="black" points="350,-147.2 292,-147.2 292,-111.2 350,-111.2 350,-147.2"/>
<text text-anchor="middle" x="321" y="-125.5" font-family="Times,serif" font-size="14.00">sspan</text>
</g>
<!-- eta1&#45;&gt;sspan -->
<g id="edge2" class="edge">
<title>eta1&#45;&gt;sspan</title>
<path fill="none" stroke="black" d="M195.21,-233.7C201.4,-229.51 208.24,-225.43 215,-222.39 245.49,-208.72 262.38,-225.85 288,-204.39 302.28,-192.44 310.61,-173.07 315.32,-157.12"/>
<polygon fill="black" stroke="black" points="318.76,-157.81 317.93,-147.25 311.99,-156.02 318.76,-157.81"/>
<text text-anchor="middle" x="339" y="-194.79" font-family="Times,serif" font-size="12.00">0.971</text>
<text text-anchor="middle" x="339" y="-181.79" font-family="Times,serif" font-size="12.00">p&#45;val: 0.00</text>
</g>
<!-- eta2 -->
<g id="node3" class="node">
<title>eta2</title>
<ellipse fill="#cae6df" stroke="black" cx="254" cy="-377.99" rx="31.4" ry="31.4"/>
<text text-anchor="middle" x="254" y="-374.29" font-family="Times,serif" font-size="14.00">eta2</text>
</g>
<!-- eta2&#45;&gt;eta3 -->
<g id="edge10" class="edge">
<title>eta2&#45;&gt;eta3</title>
<path fill="none" stroke="black" stroke-dasharray="5,2" d="M213.11,-369.83C168.38,-359.58 98.83,-335.98 67,-284.79 45.48,-250.19 50.54,-202.27 58.22,-168.99"/>
<polygon fill="black" stroke="black" points="212.56,-373.29 223.08,-371.99 214.04,-366.45 212.56,-373.29"/>
<polygon fill="black" stroke="black" points="61.64,-169.71 60.66,-159.16 54.85,-168.02 61.64,-169.71"/>
<text text-anchor="middle" x="99" y="-256.99" font-family="Times,serif" font-size="12.00">0.052</text>
<text text-anchor="middle" x="99" y="-243.99" font-family="Times,serif" font-size="12.00">p&#45;val: 0.55</text>
</g>
<!-- eta2&#45;&gt;eta1 -->
<g id="edge11" class="edge">
<title>eta2&#45;&gt;eta1</title>
<path fill="none" stroke="black" stroke-dasharray="5,2" d="M217.39,-358.34C205.71,-350.69 193.8,-340.77 186,-328.79 179.51,-318.82 175.74,-306.63 173.57,-295.03"/>
<polygon fill="black" stroke="black" points="215.86,-361.51 226.21,-363.75 219.52,-355.54 215.86,-361.51"/>
<polygon fill="black" stroke="black" points="177.02,-294.42 172.05,-285.06 170.1,-295.48 177.02,-294.42"/>
<text text-anchor="middle" x="218" y="-319.19" font-family="Times,serif" font-size="12.00">0.140</text>
<text text-anchor="middle" x="218" y="-306.19" font-family="Times,serif" font-size="12.00">p&#45;val: 0.13</text>
</g>
<!-- BIS11 -->
<g id="node4" class="node">
<title>BIS11</title>
<polygon fill="none" stroke="black" points="284,-271.59 224,-271.59 224,-235.59 284,-235.59 284,-271.59"/>
<text text-anchor="middle" x="254" y="-249.89" font-family="Times,serif" font-size="14.00">BIS11</text>
</g>
<!-- eta2&#45;&gt;BIS11 -->
<g id="edge6" class="edge">
<title>eta2&#45;&gt;BIS11</title>
<path fill="none" stroke="black" d="M254,-346.73C254,-326.87 254,-301.12 254,-281.89"/>
<polygon fill="black" stroke="black" points="257.5,-281.68 254,-271.68 250.5,-281.68 257.5,-281.68"/>
<text text-anchor="middle" x="286" y="-319.19" font-family="Times,serif" font-size="12.00">0.989</text>
<text text-anchor="middle" x="286" y="-306.19" font-family="Times,serif" font-size="12.00">p&#45;val: 0.00</text>
</g>
<!-- UPPS -->
<g id="node5" class="node">
<title>UPPS</title>
<polygon fill="none" stroke="black" points="370,-271.59 312,-271.59 312,-235.59 370,-235.59 370,-271.59"/>
<text text-anchor="middle" x="341" y="-249.89" font-family="Times,serif" font-size="14.00">UPPS</text>
</g>
<!-- eta2&#45;&gt;UPPS -->
<g id="edge4" class="edge">
<title>eta2&#45;&gt;UPPS</title>
<path fill="none" stroke="black" d="M281.36,-362.33C294.45,-354.06 309.34,-342.6 319,-328.79 328.67,-314.97 334.15,-296.86 337.22,-282"/>
<polygon fill="black" stroke="black" points="340.72,-282.31 339.05,-271.85 333.83,-281.07 340.72,-282.31"/>
<text text-anchor="middle" x="349" y="-312.69" font-family="Times,serif" font-size="12.00">1.000</text>
</g>
<!-- dickman -->
<g id="node7" class="node">
<title>dickman</title>
<polygon fill="none" stroke="black" points="465.5,-271.59 388.5,-271.59 388.5,-235.59 465.5,-235.59 465.5,-271.59"/>
<text text-anchor="middle" x="427" y="-249.89" font-family="Times,serif" font-size="14.00">dickman</text>
</g>
<!-- eta2&#45;&gt;dickman -->
<g id="edge5" class="edge">
<title>eta2&#45;&gt;dickman</title>
<path fill="none" stroke="black" d="M284.35,-369.14C309.16,-361.66 344.23,-348.58 370,-328.79 387.13,-315.64 401.83,-296.14 412.02,-280.44"/>
<polygon fill="black" stroke="black" points="415.14,-282.04 417.47,-271.7 409.21,-278.33 415.14,-282.04"/>
<text text-anchor="middle" x="427" y="-319.19" font-family="Times,serif" font-size="12.00">0.956</text>
<text text-anchor="middle" x="427" y="-306.19" font-family="Times,serif" font-size="12.00">p&#45;val: 0.00</text>
</g>
</g>
</svg>
